# xmcd
#
# Track frame offsets:
#	150
#	28884
#	57804
#	87584
#	114268
#	134508
#	161470
#	198154
#	218502
#	234437
#	263177
#	298509
#	324107
#
# Disc length: 4602 seconds
#
# Revision: 1
# Processed by: cddbd v1.5.2PL0 Copyright (c) Steve Scherf et al.
# Submitted via: dBpowerAMP V4.0
#
DISCID=af11f80d
DTITLE=Various Artist - ERG Nu Dance Traxx Vol. 194
DYEAR=2010
DGENRE=Dance
TTITLE0=Christina Aguilera - Not Myself Tonight [Jody Den Broeder Club Mix]
TTITLE1=Spankers - Sex On The Beach [Paolo Ortelli vs. Degree Reloaded Mix]
TTITLE2=Usher ft. Will.I.Am - OMG [Almighty Mix]
TTITLE3=Black Eyed Peas - Rock Your Body [Chris Lake Remix]
TTITLE4=Benny Benassi - Satisfaction 2010 [Afrojack Remix]
TTITLE5=David Guetta ft. Fergie, LMFAO and Chris Willis - Gettin' Over You [Extended Mix]
TTITLE6=Kelis - Acapella [Dave Aude Club Mix]
TTITLE7=Steve Aoki ft. [[[Zuper Blahq]]] - I'm In The House [Richard Vission Club Mix]
TTITLE8=Lady Antebellum - Need You Now [Jason Nevins Hands Up Radio Mix]
TTITLE9=La Roux - Bulletproof [Manhattan Clique Remix]
TTITLE10=Morgan Page - Strange Condition [Myers and Sellberg Remix]
TTITLE11=Fedde Le Grand - Back And Forth [Clean Extended Mix]
TTITLE12=Mike Candys and Jack Holiday - Insomnia [Chirstopher s Horny Remix]
EXTD=
EXTT0=
EXTT1=
EXTT2=
EXTT3=
EXTT4=
EXTT5=
EXTT6=
EXTT7=
EXTT8=
EXTT9=
EXTT10=
EXTT11=
EXTT12=
PLAYORDER=
